<?xml version="1.0" encoding="UTF-8" standalone="no"?>
<!DOCTYPE svg PUBLIC "-//W3C//DTD SVG 1.1//EN"
 "http://www.w3.org/Graphics/SVG/1.1/DTD/svg11.dtd">
<!-- Generated by graphviz version 2.47.0 (20210316.0004)
 -->
<!-- Title: dependencies Pages: 1 -->
<svg width="1369pt" height="284pt"
 viewBox="0.00 0.00 1369.00 284.00" xmlns="http://www.w3.org/2000/svg" xmlns:xlink="http://www.w3.org/1999/xlink">
<g id="graph0" class="graph" transform="scale(1 1) rotate(0) translate(4 280)">
<title>dependencies</title>
<polygon fill="white" stroke="transparent" points="-4,4 -4,-280 1365,-280 1365,4 -4,4"/>
<text text-anchor="start" x="659.51" y="-42.4" font-family="Times-12" font-weight="bold" font-size="14.00">Legend</text>
<polygon fill="#ffffb3" stroke="transparent" points="446.5,-10 446.5,-30 466.5,-30 466.5,-10 446.5,-10"/>
<text text-anchor="start" x="470.13" y="-15.4" font-family="Times-12" font-size="14.00"> &#160;Declarations</text>
<polygon fill="#8dd3c7" stroke="transparent" points="559.5,-10 559.5,-30 579.5,-30 579.5,-10 559.5,-10"/>
<text text-anchor="start" x="583.23" y="-15.4" font-family="Times-12" font-size="14.00"> &#160;Module</text>
<polygon fill="#80b1d3" stroke="transparent" points="645.5,-10 645.5,-30 665.5,-30 665.5,-10 645.5,-10"/>
<text text-anchor="start" x="669.28" y="-15.4" font-family="Times-12" font-size="14.00"> &#160;Bootstrap</text>
<polygon fill="#fdb462" stroke="transparent" points="742.5,-10 742.5,-30 762.5,-30 762.5,-10 742.5,-10"/>
<text text-anchor="start" x="766.17" y="-15.4" font-family="Times-12" font-size="14.00"> &#160;Providers</text>
<polygon fill="#fb8072" stroke="transparent" points="838.5,-10 838.5,-30 858.5,-30 858.5,-10 838.5,-10"/>
<text text-anchor="start" x="862.23" y="-15.4" font-family="Times-12" font-size="14.00"> &#160;Exports</text>
<g id="clust1" class="cluster">
<title>cluster_SharedComponentModule</title>
<polygon fill="none" stroke="black" stroke-dasharray="1,5" points="8,-70 8,-268 1353,-268 1353,-70 8,-70"/>
</g>
<g id="clust10" class="cluster">
<title>cluster_SharedComponentModule_imports</title>
<polygon fill="none" stroke="black" points="1223,-78 1223,-130 1345,-130 1345,-78 1223,-78"/>
</g>
<g id="clust2" class="cluster">
<title>cluster_SharedComponentModule_declarations</title>
<polygon fill="none" stroke="black" points="16,-78 16,-130 1215,-130 1215,-78 16,-78"/>
</g>
<g id="clust11" class="cluster">
<title>cluster_SharedComponentModule_exports</title>
<polygon fill="none" stroke="black" points="157,-208 157,-260 1181,-260 1181,-208 157,-208"/>
</g>
<!-- BarChartComponent -->
<g id="node1" class="node">
<title>BarChartComponent</title>
<polygon fill="#ffffb3" stroke="black" points="1207.15,-122 1074.85,-122 1074.85,-86 1207.15,-86 1207.15,-122"/>
<text text-anchor="middle" x="1141" y="-99.8" font-family="Times,serif" font-size="14.00">BarChartComponent</text>
</g>
<!-- SharedComponentModule -->
<g id="node8" class="node">
<title>SharedComponentModule</title>
<polygon fill="#8dd3c7" stroke="black" points="720.75,-187 717.75,-191 696.75,-191 693.75,-187 557.25,-187 557.25,-151 720.75,-151 720.75,-187"/>
<text text-anchor="middle" x="639" y="-164.8" font-family="Times,serif" font-size="14.00">SharedComponentModule</text>
</g>
<!-- BarChartComponent&#45;&gt;SharedComponentModule -->
<g id="edge1" class="edge">
<title>BarChartComponent&#45;&gt;SharedComponentModule</title>
<path fill="none" stroke="black" d="M1123.88,-122.02C1123.88,-139.37 1123.88,-163 1123.88,-163 1123.88,-163 730.98,-163 730.98,-163"/>
<polygon fill="black" stroke="black" points="730.98,-159.5 720.98,-163 730.98,-166.5 730.98,-159.5"/>
</g>
<!-- CommonCardComponent -->
<g id="node2" class="node">
<title>CommonCardComponent</title>
<polygon fill="#ffffb3" stroke="black" points="1056.16,-122 895.84,-122 895.84,-86 1056.16,-86 1056.16,-122"/>
<text text-anchor="middle" x="976" y="-99.8" font-family="Times,serif" font-size="14.00">CommonCardComponent</text>
</g>
<!-- CommonCardComponent&#45;&gt;SharedComponentModule -->
<g id="edge2" class="edge">
<title>CommonCardComponent&#45;&gt;SharedComponentModule</title>
<path fill="none" stroke="black" d="M957.38,-122.24C957.38,-137.57 957.38,-157 957.38,-157 957.38,-157 730.99,-157 730.99,-157"/>
<polygon fill="black" stroke="black" points="730.99,-153.5 720.99,-157 730.99,-160.5 730.99,-153.5"/>
</g>
<!-- CommonPageHeaderComponent -->
<g id="node3" class="node">
<title>CommonPageHeaderComponent</title>
<polygon fill="#ffffb3" stroke="black" points="877.57,-122 676.43,-122 676.43,-86 877.57,-86 877.57,-122"/>
<text text-anchor="middle" x="777" y="-99.8" font-family="Times,serif" font-size="14.00">CommonPageHeaderComponent</text>
</g>
<!-- CommonPageHeaderComponent&#45;&gt;SharedComponentModule -->
<g id="edge3" class="edge">
<title>CommonPageHeaderComponent&#45;&gt;SharedComponentModule</title>
<path fill="none" stroke="black" d="M698.67,-122.11C698.67,-122.11 698.67,-140.99 698.67,-140.99"/>
<polygon fill="black" stroke="black" points="695.17,-140.99 698.67,-150.99 702.17,-140.99 695.17,-140.99"/>
</g>
<!-- CustomSnackbarComponent -->
<g id="node4" class="node">
<title>CustomSnackbarComponent</title>
<polygon fill="#ffffb3" stroke="black" points="658.48,-122 481.52,-122 481.52,-86 658.48,-86 658.48,-122"/>
<text text-anchor="middle" x="570" y="-99.8" font-family="Times,serif" font-size="14.00">CustomSnackbarComponent</text>
</g>
<!-- CustomSnackbarComponent&#45;&gt;SharedComponentModule -->
<g id="edge4" class="edge">
<title>CustomSnackbarComponent&#45;&gt;SharedComponentModule</title>
<path fill="none" stroke="black" d="M607.81,-122.11C607.81,-122.11 607.81,-140.99 607.81,-140.99"/>
<polygon fill="black" stroke="black" points="604.31,-140.99 607.81,-150.99 611.31,-140.99 604.31,-140.99"/>
</g>
<!-- LineChartComponent -->
<g id="node5" class="node">
<title>LineChartComponent</title>
<polygon fill="#ffffb3" stroke="black" points="463.09,-122 324.91,-122 324.91,-86 463.09,-86 463.09,-122"/>
<text text-anchor="middle" x="394" y="-99.8" font-family="Times,serif" font-size="14.00">LineChartComponent</text>
</g>
<!-- LineChartComponent&#45;&gt;SharedComponentModule -->
<g id="edge5" class="edge">
<title>LineChartComponent&#45;&gt;SharedComponentModule</title>
<path fill="none" stroke="black" d="M458.98,-122.24C458.98,-137.57 458.98,-157 458.98,-157 458.98,-157 547.15,-157 547.15,-157"/>
<polygon fill="black" stroke="black" points="547.15,-160.5 557.15,-157 547.15,-153.5 547.15,-160.5"/>
</g>
<!-- PieChartComponent -->
<g id="node6" class="node">
<title>PieChartComponent</title>
<polygon fill="#ffffb3" stroke="black" points="307.32,-122 176.68,-122 176.68,-86 307.32,-86 307.32,-122"/>
<text text-anchor="middle" x="242" y="-99.8" font-family="Times,serif" font-size="14.00">PieChartComponent</text>
</g>
<!-- PieChartComponent&#45;&gt;SharedComponentModule -->
<g id="edge6" class="edge">
<title>PieChartComponent&#45;&gt;SharedComponentModule</title>
<path fill="none" stroke="black" d="M261.11,-122.02C261.11,-139.37 261.11,-163 261.11,-163 261.11,-163 547,-163 547,-163"/>
<polygon fill="black" stroke="black" points="547,-166.5 557,-163 547,-159.5 547,-166.5"/>
</g>
<!-- TableListComponent -->
<g id="node7" class="node">
<title>TableListComponent</title>
<polygon fill="#ffffb3" stroke="black" points="158.48,-122 23.52,-122 23.52,-86 158.48,-86 158.48,-122"/>
<text text-anchor="middle" x="91" y="-99.8" font-family="Times,serif" font-size="14.00">TableListComponent</text>
</g>
<!-- TableListComponent&#45;&gt;SharedComponentModule -->
<g id="edge7" class="edge">
<title>TableListComponent&#45;&gt;SharedComponentModule</title>
<path fill="none" stroke="black" d="M91,-122.11C91,-141.34 91,-169 91,-169 91,-169 546.96,-169 546.96,-169"/>
<polygon fill="black" stroke="black" points="546.96,-172.5 556.96,-169 546.96,-165.5 546.96,-172.5"/>
</g>
<!-- BarChartComponent  -->
<g id="node10" class="node">
<title>BarChartComponent </title>
<polygon fill="#fb8072" stroke="black" points="1173.15,-252 1036.85,-252 1036.85,-216 1173.15,-216 1173.15,-252"/>
<text text-anchor="middle" x="1105" y="-229.8" font-family="Times,serif" font-size="14.00">BarChartComponent </text>
</g>
<!-- SharedComponentModule&#45;&gt;BarChartComponent  -->
<g id="edge9" class="edge">
<title>SharedComponentModule&#45;&gt;BarChartComponent </title>
<path fill="none" stroke="black" stroke-dasharray="5,2" d="M721,-175C840.03,-175 1046.63,-175 1046.63,-175 1046.63,-175 1046.63,-205.98 1046.63,-205.98"/>
<polygon fill="black" stroke="black" points="1043.13,-205.98 1046.63,-215.98 1050.13,-205.98 1043.13,-205.98"/>
</g>
<!-- CommonCardComponent  -->
<g id="node11" class="node">
<title>CommonCardComponent </title>
<polygon fill="#fb8072" stroke="black" points="1019.16,-252 854.84,-252 854.84,-216 1019.16,-216 1019.16,-252"/>
<text text-anchor="middle" x="937" y="-229.8" font-family="Times,serif" font-size="14.00">CommonCardComponent </text>
</g>
<!-- SharedComponentModule&#45;&gt;CommonCardComponent  -->
<g id="edge10" class="edge">
<title>SharedComponentModule&#45;&gt;CommonCardComponent </title>
<path fill="none" stroke="black" stroke-dasharray="5,2" d="M721.03,-181C786.12,-181 866.23,-181 866.23,-181 866.23,-181 866.23,-205.76 866.23,-205.76"/>
<polygon fill="black" stroke="black" points="862.73,-205.76 866.23,-215.76 869.73,-205.76 862.73,-205.76"/>
</g>
<!-- CommonPageHeaderComponent  -->
<g id="node12" class="node">
<title>CommonPageHeaderComponent </title>
<polygon fill="#fb8072" stroke="black" points="837.07,-252 632.93,-252 632.93,-216 837.07,-216 837.07,-252"/>
<text text-anchor="middle" x="735" y="-229.8" font-family="Times,serif" font-size="14.00">CommonPageHeaderComponent </text>
</g>
<!-- SharedComponentModule&#45;&gt;CommonPageHeaderComponent  -->
<g id="edge11" class="edge">
<title>SharedComponentModule&#45;&gt;CommonPageHeaderComponent </title>
<path fill="none" stroke="black" stroke-dasharray="5,2" d="M676.8,-187.11C676.8,-187.11 676.8,-205.99 676.8,-205.99"/>
<polygon fill="black" stroke="black" points="673.3,-205.99 676.8,-215.99 680.3,-205.99 673.3,-205.99"/>
</g>
<!-- LineChartComponent  -->
<g id="node13" class="node">
<title>LineChartComponent </title>
<polygon fill="#fb8072" stroke="black" points="614.59,-252 473.41,-252 473.41,-216 614.59,-216 614.59,-252"/>
<text text-anchor="middle" x="544" y="-229.8" font-family="Times,serif" font-size="14.00">LineChartComponent </text>
</g>
<!-- SharedComponentModule&#45;&gt;LineChartComponent  -->
<g id="edge12" class="edge">
<title>SharedComponentModule&#45;&gt;LineChartComponent </title>
<path fill="none" stroke="black" stroke-dasharray="5,2" d="M585.96,-187.11C585.96,-187.11 585.96,-205.99 585.96,-205.99"/>
<polygon fill="black" stroke="black" points="582.46,-205.99 585.96,-215.99 589.46,-205.99 582.46,-205.99"/>
</g>
<!-- PieChartComponent  -->
<g id="node14" class="node">
<title>PieChartComponent </title>
<polygon fill="#fb8072" stroke="black" points="454.82,-252 321.18,-252 321.18,-216 454.82,-216 454.82,-252"/>
<text text-anchor="middle" x="388" y="-229.8" font-family="Times,serif" font-size="14.00">PieChartComponent </text>
</g>
<!-- SharedComponentModule&#45;&gt;PieChartComponent  -->
<g id="edge13" class="edge">
<title>SharedComponentModule&#45;&gt;PieChartComponent </title>
<path fill="none" stroke="black" stroke-dasharray="5,2" d="M557.1,-181C484.51,-181 389.93,-181 389.93,-181 389.93,-181 389.93,-205.76 389.93,-205.76"/>
<polygon fill="black" stroke="black" points="386.43,-205.76 389.93,-215.76 393.43,-205.76 386.43,-205.76"/>
</g>
<!-- TableListComponent  -->
<g id="node15" class="node">
<title>TableListComponent </title>
<polygon fill="#fb8072" stroke="black" points="303.48,-252 164.52,-252 164.52,-216 303.48,-216 303.48,-252"/>
<text text-anchor="middle" x="234" y="-229.8" font-family="Times,serif" font-size="14.00">TableListComponent </text>
</g>
<!-- SharedComponentModule&#45;&gt;TableListComponent  -->
<g id="edge14" class="edge">
<title>SharedComponentModule&#45;&gt;TableListComponent </title>
<path fill="none" stroke="black" stroke-dasharray="5,2" d="M557.02,-175C434.78,-175 218.97,-175 218.97,-175 218.97,-175 218.97,-205.98 218.97,-205.98"/>
<polygon fill="black" stroke="black" points="215.47,-205.98 218.97,-215.98 222.47,-205.98 215.47,-205.98"/>
</g>
<!-- MaterialModule -->
<g id="node9" class="node">
<title>MaterialModule</title>
<polygon fill="#8dd3c7" stroke="black" points="1337.47,-122 1334.47,-126 1313.47,-126 1310.47,-122 1230.53,-122 1230.53,-86 1337.47,-86 1337.47,-122"/>
<text text-anchor="middle" x="1284" y="-99.8" font-family="Times,serif" font-size="14.00">MaterialModule</text>
</g>
<!-- MaterialModule&#45;&gt;SharedComponentModule -->
<g id="edge8" class="edge">
<title>MaterialModule&#45;&gt;SharedComponentModule</title>
<path fill="none" stroke="black" d="M1284,-122.11C1284,-141.34 1284,-169 1284,-169 1284,-169 731.02,-169 731.02,-169"/>
<polygon fill="black" stroke="black" points="731.02,-165.5 721.02,-169 731.02,-172.5 731.02,-165.5"/>
</g>
</g>
</svg>
