<?xml version="1.0" encoding="UTF-8" standalone="no"?>
<!DOCTYPE svg PUBLIC "-//W3C//DTD SVG 1.1//EN"
 "http://www.w3.org/Graphics/SVG/1.1/DTD/svg11.dtd">
<!-- Generated by graphviz version 2.47.0 (20210316.0004)
 -->
<!-- Title: dependencies Pages: 1 -->
<svg width="4413pt" height="284pt"
 viewBox="0.00 0.00 4413.00 284.00" xmlns="http://www.w3.org/2000/svg" xmlns:xlink="http://www.w3.org/1999/xlink">
<g id="graph0" class="graph" transform="scale(1 1) rotate(0) translate(4 280)">
<title>dependencies</title>
<polygon fill="white" stroke="transparent" points="-4,4 -4,-280 4409,-280 4409,4 -4,4"/>
<text text-anchor="start" x="2181.51" y="-42.4" font-family="Times-12" font-weight="bold" font-size="14.00">Legend</text>
<polygon fill="#ffffb3" stroke="transparent" points="1968.5,-10 1968.5,-30 1988.5,-30 1988.5,-10 1968.5,-10"/>
<text text-anchor="start" x="1992.13" y="-15.4" font-family="Times-12" font-size="14.00"> &#160;Declarations</text>
<polygon fill="#8dd3c7" stroke="transparent" points="2081.5,-10 2081.5,-30 2101.5,-30 2101.5,-10 2081.5,-10"/>
<text text-anchor="start" x="2105.23" y="-15.4" font-family="Times-12" font-size="14.00"> &#160;Module</text>
<polygon fill="#80b1d3" stroke="transparent" points="2167.5,-10 2167.5,-30 2187.5,-30 2187.5,-10 2167.5,-10"/>
<text text-anchor="start" x="2191.28" y="-15.4" font-family="Times-12" font-size="14.00"> &#160;Bootstrap</text>
<polygon fill="#fdb462" stroke="transparent" points="2264.5,-10 2264.5,-30 2284.5,-30 2284.5,-10 2264.5,-10"/>
<text text-anchor="start" x="2288.17" y="-15.4" font-family="Times-12" font-size="14.00"> &#160;Providers</text>
<polygon fill="#fb8072" stroke="transparent" points="2360.5,-10 2360.5,-30 2380.5,-30 2380.5,-10 2360.5,-10"/>
<text text-anchor="start" x="2384.23" y="-15.4" font-family="Times-12" font-size="14.00"> &#160;Exports</text>
<g id="clust1" class="cluster">
<title>cluster_AppModule</title>
<polygon fill="none" stroke="black" stroke-dasharray="1,5" points="8,-70 8,-268 4397,-268 4397,-70 8,-70"/>
</g>
<g id="clust2" class="cluster">
<title>cluster_AppModule_declarations</title>
<polygon fill="none" stroke="black" points="293,-78 293,-130 4389,-130 4389,-78 293,-78"/>
</g>
<g id="clust32" class="cluster">
<title>cluster_AppModule_bootstrap</title>
<polygon fill="none" stroke="black" points="2122,-208 2122,-260 2246,-260 2246,-208 2122,-208"/>
</g>
<g id="clust30" class="cluster">
<title>cluster_AppModule_imports</title>
<polygon fill="none" stroke="black" points="16,-78 16,-130 285,-130 285,-78 16,-78"/>
</g>
<!-- ActionBarComponent -->
<g id="node1" class="node">
<title>ActionBarComponent</title>
<polygon fill="#ffffb3" stroke="black" points="4380.65,-122 4241.35,-122 4241.35,-86 4380.65,-86 4380.65,-122"/>
<text text-anchor="middle" x="4311" y="-99.8" font-family="Times,serif" font-size="14.00">ActionBarComponent</text>
</g>
<!-- AppModule -->
<g id="node28" class="node">
<title>AppModule</title>
<polygon fill="#8dd3c7" stroke="black" points="2225.66,-187 2222.66,-191 2201.66,-191 2198.66,-187 2142.34,-187 2142.34,-151 2225.66,-151 2225.66,-187"/>
<text text-anchor="middle" x="2184" y="-164.8" font-family="Times,serif" font-size="14.00">AppModule</text>
</g>
<!-- ActionBarComponent&#45;&gt;AppModule -->
<g id="edge1" class="edge">
<title>ActionBarComponent&#45;&gt;AppModule</title>
<path fill="none" stroke="black" d="M4311,-122.38C4311,-146.28 4311,-185 4311,-185 4311,-185 2236.01,-185 2236.01,-185"/>
<polygon fill="black" stroke="black" points="2236.01,-181.5 2226.01,-185 2236.01,-188.5 2236.01,-181.5"/>
</g>
<!-- AddApplicantComponent -->
<g id="node2" class="node">
<title>AddApplicantComponent</title>
<polygon fill="#ffffb3" stroke="black" points="4223.15,-122 4062.85,-122 4062.85,-86 4223.15,-86 4223.15,-122"/>
<text text-anchor="middle" x="4143" y="-99.8" font-family="Times,serif" font-size="14.00">AddApplicantComponent</text>
</g>
<!-- AddApplicantComponent&#45;&gt;AppModule -->
<g id="edge2" class="edge">
<title>AddApplicantComponent&#45;&gt;AppModule</title>
<path fill="none" stroke="black" d="M4143,-122.32C4143,-145.66 4143,-183 4143,-183 4143,-183 2235.82,-183 2235.82,-183"/>
<polygon fill="black" stroke="black" points="2235.82,-179.5 2225.82,-183 2235.82,-186.5 2235.82,-179.5"/>
</g>
<!-- AppComponent -->
<g id="node3" class="node">
<title>AppComponent</title>
<polygon fill="#ffffb3" stroke="black" points="4044.94,-122 3939.06,-122 3939.06,-86 4044.94,-86 4044.94,-122"/>
<text text-anchor="middle" x="3992" y="-99.8" font-family="Times,serif" font-size="14.00">AppComponent</text>
</g>
<!-- AppComponent&#45;&gt;AppModule -->
<g id="edge3" class="edge">
<title>AppComponent&#45;&gt;AppModule</title>
<path fill="none" stroke="black" d="M3992,-122.01C3992,-144.49 3992,-180 3992,-180 3992,-180 2236.03,-180 2236.03,-180"/>
<polygon fill="black" stroke="black" points="2236.03,-176.5 2226.03,-180 2236.03,-183.5 2236.03,-176.5"/>
</g>
<!-- ApplicantDetailsComponent -->
<g id="node4" class="node">
<title>ApplicantDetailsComponent</title>
<polygon fill="#ffffb3" stroke="black" points="3921.19,-122 3744.81,-122 3744.81,-86 3921.19,-86 3921.19,-122"/>
<text text-anchor="middle" x="3833" y="-99.8" font-family="Times,serif" font-size="14.00">ApplicantDetailsComponent</text>
</g>
<!-- ApplicantDetailsComponent&#45;&gt;AppModule -->
<g id="edge4" class="edge">
<title>ApplicantDetailsComponent&#45;&gt;AppModule</title>
<path fill="none" stroke="black" d="M3833,-122.29C3833,-144.21 3833,-178 3833,-178 3833,-178 2236,-178 2236,-178"/>
<polygon fill="black" stroke="black" points="2236,-174.5 2226,-178 2236,-181.5 2236,-174.5"/>
</g>
<!-- AuditComponent -->
<g id="node5" class="node">
<title>AuditComponent</title>
<polygon fill="#ffffb3" stroke="black" points="3726.72,-122 3613.28,-122 3613.28,-86 3726.72,-86 3726.72,-122"/>
<text text-anchor="middle" x="3670" y="-99.8" font-family="Times,serif" font-size="14.00">AuditComponent</text>
</g>
<!-- AuditComponent&#45;&gt;AppModule -->
<g id="edge5" class="edge">
<title>AuditComponent&#45;&gt;AppModule</title>
<path fill="none" stroke="black" d="M3670,-122.28C3670,-143.32 3670,-175 3670,-175 3670,-175 2235.69,-175 2235.69,-175"/>
<polygon fill="black" stroke="black" points="2235.69,-171.5 2225.69,-175 2235.69,-178.5 2235.69,-171.5"/>
</g>
<!-- Dashboard2Component -->
<g id="node6" class="node">
<title>Dashboard2Component</title>
<polygon fill="#ffffb3" stroke="black" points="3595.47,-122 3446.53,-122 3446.53,-86 3595.47,-86 3595.47,-122"/>
<text text-anchor="middle" x="3521" y="-99.8" font-family="Times,serif" font-size="14.00">Dashboard2Component</text>
</g>
<!-- Dashboard2Component&#45;&gt;AppModule -->
<g id="edge6" class="edge">
<title>Dashboard2Component&#45;&gt;AppModule</title>
<path fill="none" stroke="black" d="M3521,-122.13C3521,-142.57 3521,-173 3521,-173 3521,-173 2235.85,-173 2235.85,-173"/>
<polygon fill="black" stroke="black" points="2235.85,-169.5 2225.85,-173 2235.85,-176.5 2235.85,-169.5"/>
</g>
<!-- DashboardComponent -->
<g id="node7" class="node">
<title>DashboardComponent</title>
<polygon fill="#ffffb3" stroke="black" points="3428.97,-122 3287.03,-122 3287.03,-86 3428.97,-86 3428.97,-122"/>
<text text-anchor="middle" x="3358" y="-99.8" font-family="Times,serif" font-size="14.00">DashboardComponent</text>
</g>
<!-- DashboardComponent&#45;&gt;AppModule -->
<g id="edge7" class="edge">
<title>DashboardComponent&#45;&gt;AppModule</title>
<path fill="none" stroke="black" d="M3358,-122.31C3358,-142.15 3358,-171 3358,-171 3358,-171 2235.78,-171 2235.78,-171"/>
<polygon fill="black" stroke="black" points="2235.78,-167.5 2225.78,-171 2235.78,-174.5 2235.78,-167.5"/>
</g>
<!-- DialogboxComponent -->
<g id="node8" class="node">
<title>DialogboxComponent</title>
<polygon fill="#ffffb3" stroke="black" points="3269.44,-122 3128.56,-122 3128.56,-86 3269.44,-86 3269.44,-122"/>
<text text-anchor="middle" x="3199" y="-99.8" font-family="Times,serif" font-size="14.00">DialogboxComponent</text>
</g>
<!-- DialogboxComponent&#45;&gt;AppModule -->
<g id="edge8" class="edge">
<title>DialogboxComponent&#45;&gt;AppModule</title>
<path fill="none" stroke="black" d="M3199,-122.17C3199,-141.09 3199,-168 3199,-168 3199,-168 2235.68,-168 2235.68,-168"/>
<polygon fill="black" stroke="black" points="2235.68,-164.5 2225.68,-168 2235.68,-171.5 2235.68,-164.5"/>
</g>
<!-- DndDirective -->
<g id="node9" class="node">
<title>DndDirective</title>
<polygon fill="#ffffb3" stroke="black" points="3111.19,-122 3018.81,-122 3018.81,-86 3111.19,-86 3111.19,-122"/>
<text text-anchor="middle" x="3065" y="-99.8" font-family="Times,serif" font-size="14.00">DndDirective</text>
</g>
<!-- DndDirective&#45;&gt;AppModule -->
<g id="edge9" class="edge">
<title>DndDirective&#45;&gt;AppModule</title>
<path fill="none" stroke="black" d="M3065,-122.27C3065,-140.56 3065,-166 3065,-166 3065,-166 2235.9,-166 2235.9,-166"/>
<polygon fill="black" stroke="black" points="2235.9,-162.5 2225.9,-166 2235.9,-169.5 2235.9,-162.5"/>
</g>
<!-- DownloadComponent -->
<g id="node10" class="node">
<title>DownloadComponent</title>
<polygon fill="#ffffb3" stroke="black" points="3000.65,-122 2861.35,-122 2861.35,-86 3000.65,-86 3000.65,-122"/>
<text text-anchor="middle" x="2931" y="-99.8" font-family="Times,serif" font-size="14.00">DownloadComponent</text>
</g>
<!-- DownloadComponent&#45;&gt;AppModule -->
<g id="edge10" class="edge">
<title>DownloadComponent&#45;&gt;AppModule</title>
<path fill="none" stroke="black" d="M2931,-122.02C2931,-139.37 2931,-163 2931,-163 2931,-163 2235.76,-163 2235.76,-163"/>
<polygon fill="black" stroke="black" points="2235.76,-159.5 2225.76,-163 2235.76,-166.5 2235.76,-159.5"/>
</g>
<!-- FooterComponent -->
<g id="node11" class="node">
<title>FooterComponent</title>
<polygon fill="#ffffb3" stroke="black" points="2842.88,-122 2725.12,-122 2725.12,-86 2842.88,-86 2842.88,-122"/>
<text text-anchor="middle" x="2784" y="-99.8" font-family="Times,serif" font-size="14.00">FooterComponent</text>
</g>
<!-- FooterComponent&#45;&gt;AppModule -->
<g id="edge11" class="edge">
<title>FooterComponent&#45;&gt;AppModule</title>
<path fill="none" stroke="black" d="M2784,-122.04C2784,-138.73 2784,-161 2784,-161 2784,-161 2235.71,-161 2235.71,-161"/>
<polygon fill="black" stroke="black" points="2235.71,-157.5 2225.71,-161 2235.71,-164.5 2235.71,-157.5"/>
</g>
<!-- ForgotPasswordComponent -->
<g id="node12" class="node">
<title>ForgotPasswordComponent</title>
<polygon fill="#ffffb3" stroke="black" points="2707.32,-122 2534.68,-122 2534.68,-86 2707.32,-86 2707.32,-122"/>
<text text-anchor="middle" x="2621" y="-99.8" font-family="Times,serif" font-size="14.00">ForgotPasswordComponent</text>
</g>
<!-- ForgotPasswordComponent&#45;&gt;AppModule -->
<g id="edge12" class="edge">
<title>ForgotPasswordComponent&#45;&gt;AppModule</title>
<path fill="none" stroke="black" d="M2621,-122.01C2621,-138.05 2621,-159 2621,-159 2621,-159 2235.9,-159 2235.9,-159"/>
<polygon fill="black" stroke="black" points="2235.9,-155.5 2225.9,-159 2235.9,-162.5 2235.9,-155.5"/>
</g>
<!-- GroupComponent -->
<g id="node13" class="node">
<title>GroupComponent</title>
<polygon fill="#ffffb3" stroke="black" points="2516.6,-122 2399.4,-122 2399.4,-86 2516.6,-86 2516.6,-122"/>
<text text-anchor="middle" x="2458" y="-99.8" font-family="Times,serif" font-size="14.00">GroupComponent</text>
</g>
<!-- GroupComponent&#45;&gt;AppModule -->
<g id="edge13" class="edge">
<title>GroupComponent&#45;&gt;AppModule</title>
<path fill="none" stroke="black" d="M2458,-122.19C2458,-137.18 2458,-156 2458,-156 2458,-156 2235.91,-156 2235.91,-156"/>
<polygon fill="black" stroke="black" points="2235.91,-152.5 2225.91,-156 2235.91,-159.5 2235.91,-152.5"/>
</g>
<!-- HeaderComponent -->
<g id="node14" class="node">
<title>HeaderComponent</title>
<polygon fill="#ffffb3" stroke="black" points="2381.74,-122 2260.26,-122 2260.26,-86 2381.74,-86 2381.74,-122"/>
<text text-anchor="middle" x="2321" y="-99.8" font-family="Times,serif" font-size="14.00">HeaderComponent</text>
</g>
<!-- HeaderComponent&#45;&gt;AppModule -->
<g id="edge14" class="edge">
<title>HeaderComponent&#45;&gt;AppModule</title>
<path fill="none" stroke="black" d="M2321,-122.05C2321,-136.37 2321,-154 2321,-154 2321,-154 2235.85,-154 2235.85,-154"/>
<polygon fill="black" stroke="black" points="2235.85,-150.5 2225.85,-154 2235.85,-157.5 2235.85,-150.5"/>
</g>
<!-- HomeComponent -->
<g id="node15" class="node">
<title>HomeComponent</title>
<polygon fill="#ffffb3" stroke="black" points="2241.55,-122 2126.45,-122 2126.45,-86 2241.55,-86 2241.55,-122"/>
<text text-anchor="middle" x="2184" y="-99.8" font-family="Times,serif" font-size="14.00">HomeComponent</text>
</g>
<!-- HomeComponent&#45;&gt;AppModule -->
<g id="edge15" class="edge">
<title>HomeComponent&#45;&gt;AppModule</title>
<path fill="none" stroke="black" d="M2184,-122.11C2184,-122.11 2184,-140.99 2184,-140.99"/>
<polygon fill="black" stroke="black" points="2180.5,-140.99 2184,-150.99 2187.5,-140.99 2180.5,-140.99"/>
</g>
<!-- LoginComponent -->
<g id="node16" class="node">
<title>LoginComponent</title>
<polygon fill="#ffffb3" stroke="black" points="2108.28,-122 1993.72,-122 1993.72,-86 2108.28,-86 2108.28,-122"/>
<text text-anchor="middle" x="2051" y="-99.8" font-family="Times,serif" font-size="14.00">LoginComponent</text>
</g>
<!-- LoginComponent&#45;&gt;AppModule -->
<g id="edge16" class="edge">
<title>LoginComponent&#45;&gt;AppModule</title>
<path fill="none" stroke="black" d="M2051,-122.05C2051,-136.37 2051,-154 2051,-154 2051,-154 2132.28,-154 2132.28,-154"/>
<polygon fill="black" stroke="black" points="2132.28,-157.5 2142.28,-154 2132.28,-150.5 2132.28,-157.5"/>
</g>
<!-- MenuComponent -->
<g id="node17" class="node">
<title>MenuComponent</title>
<polygon fill="#ffffb3" stroke="black" points="1975.99,-122 1862.01,-122 1862.01,-86 1975.99,-86 1975.99,-122"/>
<text text-anchor="middle" x="1919" y="-99.8" font-family="Times,serif" font-size="14.00">MenuComponent</text>
</g>
<!-- MenuComponent&#45;&gt;AppModule -->
<g id="edge17" class="edge">
<title>MenuComponent&#45;&gt;AppModule</title>
<path fill="none" stroke="black" d="M1919,-122.19C1919,-137.18 1919,-156 1919,-156 1919,-156 2132.3,-156 2132.3,-156"/>
<polygon fill="black" stroke="black" points="2132.3,-159.5 2142.3,-156 2132.3,-152.5 2132.3,-159.5"/>
</g>
<!-- ProgressComponent -->
<g id="node18" class="node">
<title>ProgressComponent</title>
<polygon fill="#ffffb3" stroke="black" points="1843.54,-122 1714.46,-122 1714.46,-86 1843.54,-86 1843.54,-122"/>
<text text-anchor="middle" x="1779" y="-99.8" font-family="Times,serif" font-size="14.00">ProgressComponent</text>
</g>
<!-- ProgressComponent&#45;&gt;AppModule -->
<g id="edge18" class="edge">
<title>ProgressComponent&#45;&gt;AppModule</title>
<path fill="none" stroke="black" d="M1779,-122.01C1779,-138.05 1779,-159 1779,-159 1779,-159 2132.18,-159 2132.18,-159"/>
<polygon fill="black" stroke="black" points="2132.18,-162.5 2142.18,-159 2132.18,-155.5 2132.18,-162.5"/>
</g>
<!-- RuleBuilderComponent -->
<g id="node19" class="node">
<title>RuleBuilderComponent</title>
<polygon fill="#ffffb3" stroke="black" points="1695.77,-122 1546.23,-122 1546.23,-86 1695.77,-86 1695.77,-122"/>
<text text-anchor="middle" x="1621" y="-99.8" font-family="Times,serif" font-size="14.00">RuleBuilderComponent</text>
</g>
<!-- RuleBuilderComponent&#45;&gt;AppModule -->
<g id="edge19" class="edge">
<title>RuleBuilderComponent&#45;&gt;AppModule</title>
<path fill="none" stroke="black" d="M1621,-122.04C1621,-138.73 1621,-161 1621,-161 1621,-161 2132.14,-161 2132.14,-161"/>
<polygon fill="black" stroke="black" points="2132.14,-164.5 2142.14,-161 2132.14,-157.5 2132.14,-164.5"/>
</g>
<!-- RuleContainerComponent -->
<g id="node20" class="node">
<title>RuleContainerComponent</title>
<polygon fill="#ffffb3" stroke="black" points="1528.48,-122 1365.52,-122 1365.52,-86 1528.48,-86 1528.48,-122"/>
<text text-anchor="middle" x="1447" y="-99.8" font-family="Times,serif" font-size="14.00">RuleContainerComponent</text>
</g>
<!-- RuleContainerComponent&#45;&gt;AppModule -->
<g id="edge20" class="edge">
<title>RuleContainerComponent&#45;&gt;AppModule</title>
<path fill="none" stroke="black" d="M1447,-122.02C1447,-139.37 1447,-163 1447,-163 1447,-163 2132.26,-163 2132.26,-163"/>
<polygon fill="black" stroke="black" points="2132.26,-166.5 2142.26,-163 2132.26,-159.5 2132.26,-166.5"/>
</g>
<!-- ShoppingBasketComponent -->
<g id="node21" class="node">
<title>ShoppingBasketComponent</title>
<polygon fill="#ffffb3" stroke="black" points="1347.61,-122 1174.39,-122 1174.39,-86 1347.61,-86 1347.61,-122"/>
<text text-anchor="middle" x="1261" y="-99.8" font-family="Times,serif" font-size="14.00">ShoppingBasketComponent</text>
</g>
<!-- ShoppingBasketComponent&#45;&gt;AppModule -->
<g id="edge21" class="edge">
<title>ShoppingBasketComponent&#45;&gt;AppModule</title>
<path fill="none" stroke="black" d="M1261,-122.27C1261,-140.56 1261,-166 1261,-166 1261,-166 2132.25,-166 2132.25,-166"/>
<polygon fill="black" stroke="black" points="2132.25,-169.5 2142.25,-166 2132.25,-162.5 2132.25,-169.5"/>
</g>
<!-- ShoppinglistComponent -->
<g id="node22" class="node">
<title>ShoppinglistComponent</title>
<polygon fill="#ffffb3" stroke="black" points="1156.12,-122 1003.88,-122 1003.88,-86 1156.12,-86 1156.12,-122"/>
<text text-anchor="middle" x="1080" y="-99.8" font-family="Times,serif" font-size="14.00">ShoppinglistComponent</text>
</g>
<!-- ShoppinglistComponent&#45;&gt;AppModule -->
<g id="edge22" class="edge">
<title>ShoppinglistComponent&#45;&gt;AppModule</title>
<path fill="none" stroke="black" d="M1080,-122.17C1080,-141.09 1080,-168 1080,-168 1080,-168 2132.07,-168 2132.07,-168"/>
<polygon fill="black" stroke="black" points="2132.07,-171.5 2142.07,-168 2132.07,-164.5 2132.07,-171.5"/>
</g>
<!-- SignupComponent -->
<g id="node23" class="node">
<title>SignupComponent</title>
<polygon fill="#ffffb3" stroke="black" points="985.51,-122 864.49,-122 864.49,-86 985.51,-86 985.51,-122"/>
<text text-anchor="middle" x="925" y="-99.8" font-family="Times,serif" font-size="14.00">SignupComponent</text>
</g>
<!-- SignupComponent&#45;&gt;AppModule -->
<g id="edge23" class="edge">
<title>SignupComponent&#45;&gt;AppModule</title>
<path fill="none" stroke="black" d="M925,-122.31C925,-142.15 925,-171 925,-171 925,-171 2132.11,-171 2132.11,-171"/>
<polygon fill="black" stroke="black" points="2132.11,-174.5 2142.11,-171 2132.11,-167.5 2132.11,-174.5"/>
</g>
<!-- TabsComponent -->
<g id="node24" class="node">
<title>TabsComponent</title>
<polygon fill="#ffffb3" stroke="black" points="846.05,-122 737.95,-122 737.95,-86 846.05,-86 846.05,-122"/>
<text text-anchor="middle" x="792" y="-99.8" font-family="Times,serif" font-size="14.00">TabsComponent</text>
</g>
<!-- TabsComponent&#45;&gt;AppModule -->
<g id="edge24" class="edge">
<title>TabsComponent&#45;&gt;AppModule</title>
<path fill="none" stroke="black" d="M792,-122.13C792,-142.57 792,-173 792,-173 792,-173 2132.34,-173 2132.34,-173"/>
<polygon fill="black" stroke="black" points="2132.34,-176.5 2142.34,-173 2132.34,-169.5 2132.34,-176.5"/>
</g>
<!-- UploadComponent -->
<g id="node25" class="node">
<title>UploadComponent</title>
<polygon fill="#ffffb3" stroke="black" points="719.05,-122 596.95,-122 596.95,-86 719.05,-86 719.05,-122"/>
<text text-anchor="middle" x="658" y="-99.8" font-family="Times,serif" font-size="14.00">UploadComponent</text>
</g>
<!-- UploadComponent&#45;&gt;AppModule -->
<g id="edge25" class="edge">
<title>UploadComponent&#45;&gt;AppModule</title>
<path fill="none" stroke="black" d="M658,-122.28C658,-143.32 658,-175 658,-175 658,-175 2131.99,-175 2131.99,-175"/>
<polygon fill="black" stroke="black" points="2131.99,-178.5 2141.99,-175 2131.99,-171.5 2131.99,-178.5"/>
</g>
<!-- UserformComponent -->
<g id="node26" class="node">
<title>UserformComponent</title>
<polygon fill="#ffffb3" stroke="black" points="578.47,-122 443.53,-122 443.53,-86 578.47,-86 578.47,-122"/>
<text text-anchor="middle" x="511" y="-99.8" font-family="Times,serif" font-size="14.00">UserformComponent</text>
</g>
<!-- UserformComponent&#45;&gt;AppModule -->
<g id="edge26" class="edge">
<title>UserformComponent&#45;&gt;AppModule</title>
<path fill="none" stroke="black" d="M511,-122.29C511,-144.21 511,-178 511,-178 511,-178 2132.23,-178 2132.23,-178"/>
<polygon fill="black" stroke="black" points="2132.23,-181.5 2142.23,-178 2132.23,-174.5 2132.23,-181.5"/>
</g>
<!-- UserlistComponent -->
<g id="node27" class="node">
<title>UserlistComponent</title>
<polygon fill="#ffffb3" stroke="black" points="425.38,-122 300.62,-122 300.62,-86 425.38,-86 425.38,-122"/>
<text text-anchor="middle" x="363" y="-99.8" font-family="Times,serif" font-size="14.00">UserlistComponent</text>
</g>
<!-- UserlistComponent&#45;&gt;AppModule -->
<g id="edge27" class="edge">
<title>UserlistComponent&#45;&gt;AppModule</title>
<path fill="none" stroke="black" d="M363,-122.01C363,-144.49 363,-180 363,-180 363,-180 2132.11,-180 2132.11,-180"/>
<polygon fill="black" stroke="black" points="2132.11,-183.5 2142.11,-180 2132.11,-176.5 2132.11,-183.5"/>
</g>
<!-- AppComponent  -->
<g id="node31" class="node">
<title>AppComponent </title>
<polygon fill="#80b1d3" stroke="black" points="2238.44,-252 2129.56,-252 2129.56,-216 2238.44,-216 2238.44,-252"/>
<text text-anchor="middle" x="2184" y="-229.8" font-family="Times,serif" font-size="14.00">AppComponent </text>
</g>
<!-- AppModule&#45;&gt;AppComponent  -->
<g id="edge30" class="edge">
<title>AppModule&#45;&gt;AppComponent </title>
<path fill="none" stroke="black" stroke-dasharray="1,5" d="M2184,-187.11C2184,-187.11 2184,-205.99 2184,-205.99"/>
<polygon fill="black" stroke="black" points="2180.5,-205.99 2184,-215.99 2187.5,-205.99 2180.5,-205.99"/>
</g>
<!-- AppRoutingModule -->
<g id="node29" class="node">
<title>AppRoutingModule</title>
<polygon fill="#8dd3c7" stroke="black" points="277.27,-122 274.27,-126 253.27,-126 250.27,-122 148.73,-122 148.73,-86 277.27,-86 277.27,-122"/>
<text text-anchor="middle" x="213" y="-99.8" font-family="Times,serif" font-size="14.00">AppRoutingModule</text>
</g>
<!-- AppRoutingModule&#45;&gt;AppModule -->
<g id="edge28" class="edge">
<title>AppRoutingModule&#45;&gt;AppModule</title>
<path fill="none" stroke="black" d="M213,-122.32C213,-145.66 213,-183 213,-183 213,-183 2131.92,-183 2131.92,-183"/>
<polygon fill="black" stroke="black" points="2131.92,-186.5 2141.92,-183 2131.92,-179.5 2131.92,-186.5"/>
</g>
<!-- MaterialModule -->
<g id="node30" class="node">
<title>MaterialModule</title>
<polygon fill="#8dd3c7" stroke="black" points="130.47,-122 127.47,-126 106.47,-126 103.47,-122 23.53,-122 23.53,-86 130.47,-86 130.47,-122"/>
<text text-anchor="middle" x="77" y="-99.8" font-family="Times,serif" font-size="14.00">MaterialModule</text>
</g>
<!-- MaterialModule&#45;&gt;AppModule -->
<g id="edge29" class="edge">
<title>MaterialModule&#45;&gt;AppModule</title>
<path fill="none" stroke="black" d="M77,-122.38C77,-146.28 77,-185 77,-185 77,-185 2131.91,-185 2131.91,-185"/>
<polygon fill="black" stroke="black" points="2131.91,-188.5 2141.91,-185 2131.91,-181.5 2131.91,-188.5"/>
</g>
</g>
</svg>
